<svg xmlns="http://www.w3.org/2000/svg" xmlns:xlink="http://www.w3.org/1999/xlink" viewBox="-14155.001 -5788 41 41">
  <defs>
    <style>
      .cls-1 {
        opacity: 0.051;
      }

      .cls-2 {
        clip-path: url(#clip-path);
      }

      .cls-3 {
        fill: #e97122;
      }

      .cls-4 {
        fill: #1d1d1b;
      }

      .cls-5 {
        fill: #231f20;
      }

      .cls-6 {
        fill: #fff;
      }
    </style>
    <clipPath id="clip-path">
      <ellipse id="Ellipse_3180" data-name="Ellipse 3180" cx="20.5" cy="20.5" rx="20.5" ry="20.5"/>
    </clipPath>
  </defs>
  <g id="Group_25804" data-name="Group 25804" transform="translate(-14164.801 -5788)">
    <ellipse id="Ellipse_3179" data-name="Ellipse 3179" class="cls-1" cx="20.5" cy="20.5" rx="20.5" ry="20.5" transform="translate(9.8)"/>
    <g id="Group_25803" data-name="Group 25803" transform="translate(9.8)">
      <g id="Group_25802" data-name="Group 25802" class="cls-2">
        <g id="Group_25799" data-name="Group 25799" transform="translate(-6.697 4.51)">
          <path id="Path_24455" data-name="Path 24455" class="cls-3" d="M45.716,87.987,37.175,59.423,36.7,35.165s6.765,4.237,6.833,6.423c0,1.777-1.708,3.212-5.262,6.97-1.913,2.6,1.367,9.5,5.672,8.268,2.528-.752,4.032-3.348,1.435-5.4l-.2-.41c4.1-4.168,7.927-10.523,7.107-12.71-1.708-4.373-13.735-11.548-17.835-13.8a9.809,9.809,0,0,0,2.87-6.97,9.635,9.635,0,1,0-16.4,6.833C17.016,26.555,1.163,35.575,1.3,38.308c.068,2.323,4.51,8.542,8.678,12.71l-.2.41c-2.6,2.05-1.093,4.715,1.435,5.4,4.3,1.23,7.585-5.672,5.672-8.268-3.553-3.758-6.082-5.945-6.013-7.722.068-2.255,7.517-5.672,7.517-5.672L17.9,59.423,10.183,87.987A8.754,8.754,0,0,0,1.778,96.6h16.81L27.881,63.25l9.43,33.278h16.81A8.67,8.67,0,0,0,45.716,87.987Z" transform="translate(-0.411 -7.012)"/>
          <path id="Path_24456" data-name="Path 24456" class="cls-4" d="M53.71,97H36.9a.82.82,0,0,1-.82-.615L27.538,65.982,19.065,96.39a.883.883,0,0,1-.82.615H1.435a.835.835,0,0,1-.615-.273.835.835,0,0,1-.273-.615,9.446,9.446,0,0,1,8.542-9.362L16.6,58.875l.068-4.852-.41.615c-1.5,2.187-3.69,3.143-5.808,2.528a4.406,4.406,0,0,1-3.212-3.143A3.53,3.53,0,0,1,8.4,50.743C4.783,46.917.068,40.7,0,37.9c-.068-2.255,6.355-6.97,19.133-14.145a10.53,10.53,0,1,1,16.332.068c4.578,2.6,15.512,9.225,17.288,13.735,1.093,2.8-3.143,9.293-6.765,13.12a3.249,3.249,0,0,1,1.162,3.28A4.453,4.453,0,0,1,43.8,57.167c-2.118.615-4.237-.342-5.808-2.528l-.41-.615.068,4.783,8.337,27.88a9.5,9.5,0,0,1,8.61,9.362.835.835,0,0,1-.273.615A.945.945,0,0,1,53.71,97ZM37.515,95.3H52.753c-.273-1.913-1.572-6.355-7.517-6.9a.87.87,0,0,1-.752-.615L35.943,59.217c0-.068-.068-.137-.068-.205L35.4,34.753a.785.785,0,0,1,.41-.752,1.014,1.014,0,0,1,.888,0c1.708,1.025,7.175,4.647,7.243,7.107,0,1.845-1.3,3.212-3.895,5.877-.478.478-1.025,1.025-1.572,1.64-.752,1.025-.342,3.28.82,5.057.547.752,1.982,2.46,3.9,1.913A2.888,2.888,0,0,0,45.3,53.682,2.035,2.035,0,0,0,44.28,51.7a.682.682,0,0,1-.273-.342l-.137-.41a.846.846,0,0,1,.205-.957c4.373-4.373,7.517-10.25,6.9-11.822C49.61,34.548,39.36,28.057,33.551,24.777a.785.785,0,0,1-.41-.615.813.813,0,0,1,.273-.752,8.678,8.678,0,0,0,2.665-6.287,8.781,8.781,0,1,0-17.562,0,8.573,8.573,0,0,0,2.6,6.218,1.028,1.028,0,0,1,.273.752,1,1,0,0,1-.41.615C8.473,31.678,1.845,36.6,1.708,37.9c.068,1.913,4.168,7.858,8.473,12.163a.846.846,0,0,1,.2.957l-.2.41a1.2,1.2,0,0,1-.273.342A2.235,2.235,0,0,0,8.883,53.75,2.888,2.888,0,0,0,11,55.663c1.982.547,3.417-1.162,3.9-1.913,1.23-1.708,1.572-3.963.82-5.057-.615-.615-1.162-1.23-1.708-1.777C11.138,43.978,9.43,42.2,9.5,40.425c.068-2.528,6.15-5.6,8.063-6.423a.879.879,0,0,1,.82.068.785.785,0,0,1,.41.752L18.313,59.08v.205L10.591,87.848a.8.8,0,0,1-.752.615c-6.013.547-7.243,4.988-7.517,6.9H17.561l9.157-32.732a.883.883,0,0,1,.82-.615.82.82,0,0,1,.82.615ZM17.151,36.12c-3.212,1.64-5.808,3.553-5.808,4.305,0,1.093,1.777,2.938,4.032,5.33l1.572,1.572Zm20.022.205.2,11a14.206,14.206,0,0,1,1.435-1.435c2.323-2.392,3.485-3.553,3.417-4.715C42.23,40.288,39.838,38.1,37.173,36.325Z" transform="translate(0.001 -6.6)"/>
        </g>
        <g id="Group_25800" data-name="Group 25800" transform="translate(9.622 4.019)">
          <path id="_x38_ce3ea00-5924-4d79-ae23-9fc6875d0bd2_1_" class="cls-3" d="M30.759,26a9.98,9.98,0,1,1,13.257-4.715,10.36,10.36,0,0,1-3.69,4.168" transform="translate(-24.254 -6.237)"/>
          <path id="Path_24457" data-name="Path 24457" class="cls-5" d="M30.386,26.531a.512.512,0,0,1-.342-.068,10.675,10.675,0,0,1-5.535-6.15,10.838,10.838,0,0,1,.41-8.268,10.675,10.675,0,0,1,6.15-5.535,10.838,10.838,0,0,1,8.268.41,10.675,10.675,0,0,1,5.535,6.15,10.838,10.838,0,0,1-.41,8.268,10.7,10.7,0,0,1-4.032,4.51.844.844,0,1,1-.888-1.435,9.222,9.222,0,0,0,3.417-3.827,9.123,9.123,0,0,0,.342-6.97,8.838,8.838,0,0,0-4.715-5.193,9.015,9.015,0,0,0-7.038-.41,8.838,8.838,0,0,0-5.193,4.715,9.137,9.137,0,0,0,4.3,12.163.879.879,0,0,1,.41,1.162A.743.743,0,0,1,30.386,26.531Z" transform="translate(-23.881 -5.881)"/>
        </g>
        <g id="Group_25801" data-name="Group 25801" transform="translate(8.682 6.821)">
          <path id="Path_24458" data-name="Path 24458" class="cls-6" d="M24.125,12.338a49.115,49.115,0,0,1,20.432-.273c.957,1.23.752,4.032.752,4.032s-13.462-2.255-21.457.547C23.51,15.686,24.125,12.338,24.125,12.338Z" transform="translate(-22.899 -10.344)"/>
          <path id="Path_24459" data-name="Path 24459" class="cls-4" d="M23.459,17.169a.867.867,0,0,1-.41-.068.722.722,0,0,1-.41-.478c-.342-1.093.068-3.895.205-4.715a.9.9,0,0,1,.615-.683,49.344,49.344,0,0,1,20.773-.273c.2.068.41.137.478.342,1.162,1.435.957,4.305.957,4.647a.718.718,0,0,1-.342.615,1.154,1.154,0,0,1-.683.205c-.137,0-13.325-2.187-21.047.547C23.663,17.169,23.527,17.169,23.459,17.169Zm1.025-4.51c-.137.888-.2,1.845-.273,2.46,6.9-1.982,16.742-.888,19.885-.41a5.05,5.05,0,0,0-.478-2.323A48.563,48.563,0,0,0,24.483,12.659Z" transform="translate(-22.506 -9.982)"/>
        </g>
        <path id="Path_24460" data-name="Path 24460" class="cls-5" d="M35.925,59.736c-.342,0-.683-.068-.82-.41L25.88,33.906a.813.813,0,0,1,.478-1.025.867.867,0,0,1,1.093.547l8.4,23.165L43.442,33.7a.864.864,0,1,1,1.64.547l-8.337,25.01a.774.774,0,0,1-.82.478Z" transform="translate(-14.879 -10.399)"/>
      </g>
    </g>
  </g>
</svg>
