<svg xmlns="http://www.w3.org/2000/svg" xmlns:xlink="http://www.w3.org/1999/xlink" viewBox="-13990 -5788 41 41">
  <defs>
    <style>
      .cls-1 {
        opacity: 0.05;
      }

      .cls-2 {
        clip-path: url(#clip-path);
      }

      .cls-3 {
        fill: #e73089;
      }

      .cls-4 {
        fill: #100c08;
      }

      .cls-5 {
        fill: #1d1d1b;
      }

      .cls-6 {
        fill: #fff;
      }
    </style>
    <clipPath id="clip-path">
      <circle id="Ellipse_3246" data-name="Ellipse 3246" cx="20.5" cy="20.5" r="20.5"/>
    </clipPath>
  </defs>
  <g id="Group_25933" data-name="Group 25933" transform="translate(-14003.3 -5788)">
    <circle id="Ellipse_3245" data-name="Ellipse 3245" class="cls-1" cx="20.5" cy="20.5" r="20.5" transform="translate(13.3)"/>
    <g id="Group_25932" data-name="Group 25932" transform="translate(13.3)">
      <g id="Group_25931" data-name="Group 25931" class="cls-2">
        <g id="Group_25930" data-name="Group 25930" transform="translate(-9.051 3.884)">
          <g id="Group_25925" data-name="Group 25925" transform="translate(0 0.044)">
            <path id="Path_24684" data-name="Path 24684" class="cls-3" d="M10.311,59.4l.2,31.57L26.233,90.9s-.137.068-.137,0l11.753.068s1.367-8.473-8.747-8l.888-38.608a31.306,31.306,0,0,0,5.6-7.448l-2.8-11.07M10.311,59.4,6.826,64.592m29.11-42.572a9.567,9.567,0,0,0,1.435-3.9,9.828,9.828,0,1,0-16.947,5.33c-11.48,2.528-14.282,17.152-16.4,24.8C2.18,55.026,1.5,51.472,1.5,51.472a23.579,23.579,0,0,0,.2,7.653c.683,3.553,3.075,5.6,5.125,5.467m3.69-7.038c0,4.237-1.435-2.05-2.187-3.417.547-11.412,3.28-14.555,3.28-14.555S10.448,53.317,10.516,57.554Z" transform="translate(-0.44 -6.131)"/>
            <path id="Path_24685" data-name="Path 24685" class="cls-4" d="M37.464,91.473h0L25.916,91.4c-.137.068-.342,0-.478,0l-15.375.068h0a.831.831,0,0,1-.82-.82l-.2-31.57a11.155,11.155,0,0,1-1.093-2.8c-.273-.82-.547-1.708-.752-2.118a.452.452,0,0,1-.068-.41c.547-11.548,3.417-14.9,3.485-15.033a.846.846,0,0,1,.957-.2.916.916,0,0,1,.547.888c0,.137-1.093,13.667-1.093,17.835a4.346,4.346,0,0,1-.205,1.708v.068l.205,30.75L25.847,89.7h.2l10.66.068a6.079,6.079,0,0,0-1.435-4.237c-1.3-1.435-3.485-2.118-6.56-1.982a.742.742,0,0,1-.615-.273,1.018,1.018,0,0,1-.273-.615l.888-38.608a.835.835,0,0,1,.273-.615,33.365,33.365,0,0,0,5.33-6.9l-2.733-10.8a.845.845,0,0,1,1.64-.41l2.8,11.07a.965.965,0,0,1-.068.615,31.354,31.354,0,0,1-5.535,7.38l-.82,37.378c3.143,0,5.467.888,6.97,2.6a8.661,8.661,0,0,1,1.777,6.423A.943.943,0,0,1,37.464,91.473ZM8.764,53.617c.137.342.342.82.547,1.367.137-2.87.41-6.9.615-10.182A50.385,50.385,0,0,0,8.764,53.617ZM6.236,65.1c-2.323,0-4.988-2.118-5.74-6.15a25.14,25.14,0,0,1-.2-7.995.945.945,0,0,1,.82-.752.785.785,0,0,1,.752.41,29.345,29.345,0,0,0,1.025-2.938c.2-.683.41-1.435.615-2.187,2.118-7.927,5.262-19.817,15.17-22.892a10.44,10.44,0,0,1-1.845-7.653,10.481,10.481,0,0,1,11.89-9.088,10.63,10.63,0,0,1,7.517,16.263.844.844,0,1,1-1.435-.888,9.278,9.278,0,0,0,1.3-3.553,8.968,8.968,0,1,0-15.443,4.852.9.9,0,0,1,.2.82.726.726,0,0,1-.615.547c-9.977,2.187-13.12,14.145-15.17,22-.205.752-.41,1.5-.615,2.187C3.5,51.5,2.751,52.8,1.726,52.8a23.744,23.744,0,0,0,.41,5.74c.615,3.212,2.665,4.92,4.237,4.852a.823.823,0,1,1,.137,1.64A.411.411,0,0,1,6.236,65.1Z" transform="translate(-0.055 -5.747)"/>
          </g>
          <g id="Group_25926" data-name="Group 25926" transform="translate(16.531)">
            <path id="Path_24686" data-name="Path 24686" class="cls-3" d="M28.754,24.151c-2.6-2.8-4.1-7.722-2.392-11.412A9.8,9.8,0,0,1,44.2,20.871a10.112,10.112,0,0,1-5.125,4.988" transform="translate(-24.686 -6.1)"/>
            <path id="Path_24687" data-name="Path 24687" class="cls-4" d="M38.565,26.263a.888.888,0,0,1-.82-.547.783.783,0,0,1,.478-1.093,8.947,8.947,0,0,0,.273-16.4,8.88,8.88,0,0,0-11.822,4.442c-1.572,3.485,0,8,2.255,10.523a.871.871,0,0,1-1.3,1.162c-2.665-2.87-4.51-8.2-2.6-12.368A10.689,10.689,0,1,1,44.51,20.8a10.326,10.326,0,0,1-5.6,5.4A.616.616,0,0,1,38.565,26.263Z" transform="translate(-24.247 -5.683)"/>
          </g>
          <path id="Path_24688" data-name="Path 24688" class="cls-5" d="M14.82,116.9a.831.831,0,0,1-.82-.82.847.847,0,0,1,.82-.888l15.785-.137a4.21,4.21,0,0,0-.547-3.007q-1.332-2.05-5.33-2.665a.873.873,0,0,1-.752-.82V86.22a.831.831,0,0,1,.82-.82.882.882,0,0,1,.82.82v21.662c2.733.547,4.715,1.64,5.74,3.28a6.049,6.049,0,0,1,.615,4.92h0a.812.812,0,0,1-.82.683L14.82,116.9Z" transform="translate(-4.471 -30.927)"/>
          <g id="Group_25929" data-name="Group 25929" transform="translate(13.35 18.744)">
            <g id="Group_25927" data-name="Group 25927">
              <path id="Path_24689" data-name="Path 24689" class="cls-6" d="M20.9,66.01s7.517-11.48,6.355-17.7c-.752-4.168-.888-7.448,1.025-10.318.752-1.093,2.528-4.373,8.063-3.553a114.841,114.841,0,0,0,11.89.82c1.23.068,3.485.82,2.733,3.963l-1.982-.137a9.6,9.6,0,0,0-1.845,6.9c.547,4.1-.957,15.375-6.218,20.363l-4.647.273L22.4,66.215Z" transform="translate(-20.006 -33.492)"/>
              <path id="Path_24690" data-name="Path 24690" d="M36.065,67l-14.077-.273h-.137l-1.5-.205a.988.988,0,0,1-.683-.478.879.879,0,0,1,.068-.82c.068-.137,7.312-11.275,6.218-17.083-.752-4.373-.888-7.858,1.162-10.933l.137-.2c.82-1.23,2.938-4.578,8.815-3.758a106.764,106.764,0,0,0,10.865.82h1.025A3.812,3.812,0,0,1,50.962,35.5a4.113,4.113,0,0,1,.547,3.553.885.885,0,0,1-.888.683l-1.5-.137a8.554,8.554,0,0,0-1.367,5.877c.615,4.647-1.093,16.058-6.492,21.115a.776.776,0,0,1-.547.205Zm-14.008-2.05L36,65.221l4.237-.205c4.715-4.715,6.287-15.238,5.74-19.407a10.55,10.55,0,0,1,1.982-7.517.7.7,0,0,1,.683-.273l1.162.068a1.892,1.892,0,0,0-.342-1.435A2.173,2.173,0,0,0,47.75,35.7h-.957a92.554,92.554,0,0,1-11-.82c-4.715-.683-6.355,1.845-7.107,3.007l-.137.205c-1.708,2.6-1.572,5.74-.888,9.7.957,5.4-3.9,14.145-5.808,17.22Z" transform="translate(-19.591 -33.113)"/>
            </g>
            <path id="Path_24691" data-name="Path 24691" d="M55.394,39.27h-.205c-4.168-1.093-15.033-1.23-15.1-1.23a.866.866,0,0,1-.615-.273,1.02,1.02,0,0,1-.205-.683c.205-1.5-.068-1.982-.2-2.05a.534.534,0,0,0-.342-.137.871.871,0,1,1-.342-1.708,2.163,2.163,0,0,1,1.845.547,3.587,3.587,0,0,1,.82,2.6c2.8.068,10.933.273,14.623,1.23a.837.837,0,0,1,.615,1.025A.943.943,0,0,1,55.394,39.27Z" transform="translate(-25.321 -33.129)"/>
            <g id="Group_25928" data-name="Group 25928" transform="translate(22.34 7.65)">
              <path id="Path_24692" data-name="Path 24692" class="cls-3" d="M58.151,47.8s-.957-1.982.752-2.323c2.05-.41,2.05,1.845,2.05,1.845s2.323.888,1.23,4.168c-1.025,3.28-3.622,3.212-4.92,3.143-1.3-.137-5.057-1.64-3.28-5.193A3.028,3.028,0,0,1,58.151,47.8Z" transform="translate(-52.673 -44.663)"/>
              <path id="Path_24693" data-name="Path 24693" d="M57.556,55.168H56.8a5.835,5.835,0,0,1-4.1-2.528,4.111,4.111,0,0,1,.137-3.895,4.364,4.364,0,0,1,2.46-2.255,3.009,3.009,0,0,1,1.3-.137A2.412,2.412,0,0,1,56.8,45.4a1.876,1.876,0,0,1,1.5-1.025,2.679,2.679,0,0,1,2.118.41,2.616,2.616,0,0,1,.888,1.708c1.025.683,2.118,2.187,1.23,4.988A4.75,4.75,0,0,1,57.556,55.168Zm-1.093-7.175a2.274,2.274,0,0,0-2.05,1.5,2.251,2.251,0,0,0-.137,2.255,4.081,4.081,0,0,0,2.733,1.64c1.572.137,3.212-.068,4.032-2.528.752-2.392-.615-3.075-.752-3.143a.888.888,0,0,1-.547-.82,1.379,1.379,0,0,0-.342-.957c-.137-.137-.342-.137-.683-.068-.068,0-.273.068-.273.137a1.638,1.638,0,0,0,.137.957.934.934,0,0,1-.137.957.745.745,0,0,1-.957.137A6.758,6.758,0,0,1,56.463,47.993Z" transform="translate(-52.283 -44.308)"/>
            </g>
          </g>
        </g>
      </g>
    </g>
  </g>
</svg>
