<svg xmlns="http://www.w3.org/2000/svg" width="287.85" height="295.52" viewBox="0 0 287.85 295.52"><defs><style>.a{fill:#ffdf2f;}.b{fill:#006dab;}.c{fill:#231f20;}.d{fill:#fcb116;opacity:0.5;}.e{fill:#2b3330;}.f{fill:#c80000;}.g{fill:#be400e;}.h{fill:#ca206c;}.i{fill:#007a39;}</style></defs><path class="a" d="M324.63,155A124.63,124.63,0,1,1,200,30.36,124.63,124.63,0,0,1,324.63,155" transform="translate(-57.67 -29.4)"/><path class="b" d="M283.7,291.34c-2.33,2.51-5.1,6-4.26,6.8s4.88.46,9-1.27c-1.6-2-3.42-4-4.78-5.53m-17.95-.93c-.8.79-1.76,1-2.24.52a4.13,4.13,0,0,1-.3-2.9,19.21,19.21,0,0,1,3.92-5.19,36.81,36.81,0,0,1,4.46-3.58c9.59-6.59,24.42-8.4,29.89-2.85,3.73,3.77,3.76,10.52-2.6,16.8a22.49,22.49,0,0,1-5.29,3.91c.86,1,1.4,1.42.08,2.72-.8.79-2.37-.25-3.5-1.22-5.58,1.92-10.61,1.28-11.68.19-1.61-1.62.13-5.85,3.18-9.71-1.24-1.43-4.29-5.18-3.58-5.88.29-.28,1.53-.16,2.73.66a25.82,25.82,0,0,1,3,2.77l.26-.26c4.85-4.79,9.29-6,11.07-4.22a2.94,2.94,0,0,1,.14,3.95c-.65.64-1.78,1-2,.79-.38-.39,1-1.81.36-2.43-.92-.94-5.29,2.33-7.74,4.59.76.83,1.68,1.84,2.33,2.5s2.21,2.26,3.53,3.63a19.41,19.41,0,0,0,3.67-2.81c2.57-2.53,7.69-9.09,3.35-13.49-6.06-6.15-24-.33-30.47,6.1-2.56,2.53-3.88,4.29-3.63,4.54s1.5-1,1.83-.63-.37,1.07-.8,1.5" transform="translate(-57.67 -29.4)"/><path class="b" d="M300.22,271.22c.42-.41,2,0,2.62.68s3.91,3.86,4.86,4.78a21.27,21.27,0,0,1,2.13,2.39c.33.49.37.85-.34,1.56a1.42,1.42,0,0,1-2.15,0c-.67-.59-2.44-2.39-3.27-3.34s-2.44-2.77-3.35-4-.83-1.73-.5-2.06" transform="translate(-57.67 -29.4)"/><path class="b" d="M297.45,259.65c-.41-.19-1.4-.43-2.83,1-3.11,3.07-3.37,7.74-1.57,9.55a3.22,3.22,0,0,0,2.2.89,2.33,2.33,0,0,0,.47.74c.31.31,1.6.71,2,.35s.25-.8.11-1.57a5.16,5.16,0,0,0,1.72-1.06c2.93-2.89,3-8.25,1.31-10a2.24,2.24,0,0,0-3.37.12m-.37,8.72c-.12-.87-.59-5.24,1.33-7.14a.9.9,0,0,1,1.44,0c.59.6,1.15,3.45-1.3,5.88a11,11,0,0,1-1.47,1.21m-2.37.6a1,1,0,0,1-.45-.3,3.66,3.66,0,0,1,.52-4.45,10.7,10.7,0,0,0-.24,2.51,18.35,18.35,0,0,0,.17,2.24" transform="translate(-57.67 -29.4)"/><path class="b" d="M307.87,263.78c1.72-1.7,4.14-3.52,4.68-3a1.49,1.49,0,0,1-.07,2.14c-1,1.14-6.38,6.59-5.72,7.26.36.36,2.11-1.13,3.74-2.47s4.28-3.69,6.74-1.2c1.95,2,1.58,3.11,1.38,3.6a12.67,12.67,0,0,1-2.29,3.62c-3.31,3.27-6.53,2.62-7.48,1.65s-.67-2.48.82-4,4.35-3.11,4.95-2.5-.31,1.73-.76,2.17c-2,2-2.7,1.06-3.87,2.21-.66.66-.27,3,3.06-.29,3-2.93,2.95-4.79,2.43-5.32-.68-.69-3.2,1-4.52,2.11s-3.22,2.88-4.25,3.08-1.8-.82-2.29-1.8c-1-2,1.74-5.65,3.45-7.34" transform="translate(-57.67 -29.4)"/><path class="b" d="M314.25,258.55c1.13-1.17,8.73,1.72,9.13,1.31s-1.1-1.34-2.68-2.43c-3.56-2.48-6-3.16-5.18-4,.62-.64,4.68-.66,8.61,3.15,1.83,1.76,3.9,4.39,2.3,6s-8.1-1.62-8.5-1.21c-.21.21,2.75,3.28,3.59,4.25s1,1.78.5,2.3c-.76.78-1.83.37-3.3-1.06s-5.86-6.88-4.47-8.32" transform="translate(-57.67 -29.4)"/><path class="b" d="M328.88,249.84c.54-.55.93-1.12,1.58-.36s.9,1.09.35,1.66l-2.87,3c.23.42.8,1.51,1,2s.64.05,1.06-.68a24,24,0,0,1,2.32-3.2c.63-.65,2.11-.09,2.08.62s-.37,4.34-2.39,6.44a3.09,3.09,0,0,1-4.25-.06,10.68,10.68,0,0,1-1.88-3c-.11,0-.26,0-.52-.21-.59-.41-1.35-.74-.61-1.65L325,254l-.7-2.1a3.16,3.16,0,0,1-.9.5,2.46,2.46,0,0,1-2-.25c-.61-.6,3.52-5.35,4.53-6.4s1.62-1.22,2.47-1.06a3.61,3.61,0,0,1,1.49.53c.14.14.34.61-1,2-.67.69-1.67,1.9-2.71,3l.75,1.71,1.93-2.07" transform="translate(-57.67 -29.4)"/><path class="b" d="M336.08,251.12c1.11,3.56,2.77,6.88,4.68,8.72,2.15,2.08,4.24,1.59,4.63,1.19s-.21-1-.6-1.6a44.82,44.82,0,0,1-5-8.89,4.67,4.67,0,0,0,1-.79c2.38-2.46,2.36-8.15-.78-11.18-1.65-1.59-3.42-2.15-4.44-1.09-1.5,1.55-1.44,6.05-.36,10.71-1.32-1-2.17-3.77-2.62-5.83-.31-1.44-1.45-2.42-1.68-2.18s-.86,6.08,2.83,9.64a4.89,4.89,0,0,0,2.27,1.3m2.54-3.93c-1.34-4.32-1.42-7.45-.91-8,.9-.94,4.21,4,.91,8" transform="translate(-57.67 -29.4)"/><path class="c" d="M57.67,247.42l10.1-6.68L67,239.55l1.89-1.25.78,1.18,1.63-1.08a4.6,4.6,0,0,1,1.66-.72,3.3,3.3,0,0,1,1.47,0,2.91,2.91,0,0,1,1.22.6,5.08,5.08,0,0,1,.92,1l.74,1.11L75,242l-.72-1.09c-.31-.48-.75-.53-1.3-.16l-1.75,1.16,1.19,1.79L70.56,245l-1.19-1.8-10.11,6.69Z" transform="translate(-57.67 -29.4)"/><path class="c" d="M61.52,253.14l11.61-8.5L74.84,247l-1.24.91a8.64,8.64,0,0,1,2,.66A4.41,4.41,0,0,1,77.24,250l-2.48,1.81a2.31,2.31,0,0,0-.38-.81,3.53,3.53,0,0,0-.7-.69,2.37,2.37,0,0,0-1-.46,2.73,2.73,0,0,0-1.21,0,3.51,3.51,0,0,0-1.36.65l-6.89,5Z" transform="translate(-57.67 -29.4)"/><path class="c" d="M74,254a13.17,13.17,0,0,1,1.32-.94,3.81,3.81,0,0,1,1.28-.51,3.94,3.94,0,0,1,2.09.17,5,5,0,0,1,3,3.56,4,4,0,0,1-.22,2.09,4.12,4.12,0,0,1-.74,1.16,11.54,11.54,0,0,1-1.17,1.12l-3.65,3a11.36,11.36,0,0,1-1.32.95,3.87,3.87,0,0,1-3.36.34,4.46,4.46,0,0,1-1.92-1.42,4.41,4.41,0,0,1-1-2.15,3.86,3.86,0,0,1,.22-2.08,3.94,3.94,0,0,1,.73-1.16A9.86,9.86,0,0,1,70.4,257Zm-2.15,5.55a1.76,1.76,0,0,0-.7,1.08,1.34,1.34,0,0,0,.34,1.06,1.37,1.37,0,0,0,1,.53,1.74,1.74,0,0,0,1.2-.49l4.34-3.6a1.77,1.77,0,0,0,.71-1.09,1.34,1.34,0,0,0-.35-1.06,1.33,1.33,0,0,0-1-.53,1.76,1.76,0,0,0-1.2.49Z" transform="translate(-57.67 -29.4)"/><path class="c" d="M74.09,269l10.25-10.09,2,2.06-1,1,0,0A4.31,4.31,0,0,1,87,262a2.77,2.77,0,0,1,1.46.86,2.51,2.51,0,0,1,.77,1.43,4.52,4.52,0,0,1,0,1.42,5.85,5.85,0,0,1,1.57.14,3.3,3.3,0,0,1,1.57,1,3.46,3.46,0,0,1,.65.92,2.68,2.68,0,0,1,.28,1.16,3.26,3.26,0,0,1-.26,1.29,4.26,4.26,0,0,1-1,1.34l-7.87,7.75-2-2.06,7.1-7a1.94,1.94,0,0,0,.63-1.14,1.3,1.3,0,0,0-.42-1.07,1.21,1.21,0,0,0-1.15-.45,2.87,2.87,0,0,0-1.28.81l-6.89,6.79-2-2.06,7.1-7a2,2,0,0,0,.63-1.14,1.28,1.28,0,0,0-.42-1.06,1.21,1.21,0,0,0-1.15-.45,2.87,2.87,0,0,0-1.28.81l-6.89,6.79Z" transform="translate(-57.67 -29.4)"/><path class="b" d="M91.62,285.77l15.44-20,4.18,3.23a7.43,7.43,0,0,1,2,2.24,5.56,5.56,0,0,1,.72,2.34,5.32,5.32,0,0,1-.36,2.3,8.15,8.15,0,0,1-1.2,2.1l-.56.73a8.44,8.44,0,0,1-1.19,1.28,4.19,4.19,0,0,1-1.14.69,5,5,0,0,1-2.5.22,3.9,3.9,0,0,1,.4,2.55,7.14,7.14,0,0,1-1.47,2.9l-.87,1.12a7.34,7.34,0,0,1-4.4,3.06c-1.57.27-3.3-.31-5.17-1.76Zm10-7-4.94,6.4,1.23.95a3.73,3.73,0,0,0,1.56.8,2.13,2.13,0,0,0,1.28-.13,3.28,3.28,0,0,0,1.14-.82c.35-.39.72-.82,1.09-1.31a10.62,10.62,0,0,0,.94-1.38,3,3,0,0,0,.4-1.22,2.13,2.13,0,0,0-.31-1.16,4.65,4.65,0,0,0-1.13-1.16Zm6.2-8-4.25,5.5,1.29,1a2.78,2.78,0,0,0,2.48.77,4.74,4.74,0,0,0,2.11-1.71,4,4,0,0,0,1-2.45,3.07,3.07,0,0,0-1.46-2.2Z" transform="translate(-57.67 -29.4)"/><path class="b" d="M116,293.76l-6-3.91-1.34,2a1.73,1.73,0,0,0-.31,1.36,1.79,1.79,0,0,0,.83,1.1,1.43,1.43,0,0,0,1.48.23,3.12,3.12,0,0,0,1-.78l3,2a5.22,5.22,0,0,1-3.31,2.42,5.14,5.14,0,0,1-2.07.05,5.54,5.54,0,0,1-2.1-.86,5.61,5.61,0,0,1-2-2.18,4.9,4.9,0,0,1-.5-2.57,4.72,4.72,0,0,1,.44-1.65,14.1,14.1,0,0,1,1-1.78l3.23-5a12.91,12.91,0,0,1,1.22-1.62,4.86,4.86,0,0,1,1.33-1.07,4.81,4.81,0,0,1,2.56-.58,5.48,5.48,0,0,1,2.81,1,5.72,5.72,0,0,1,1.66,1.58,5.17,5.17,0,0,1,.8,1.92,5.83,5.83,0,0,1-1,4.14Zm-4.45-6.29,3,1.94,1.12-1.73a2.15,2.15,0,0,0,.44-1.55,1.71,1.71,0,0,0-.8-1.14,1.65,1.65,0,0,0-1.37-.27,2.15,2.15,0,0,0-1.24,1Z" transform="translate(-57.67 -29.4)"/><path class="b" d="M123.54,286.1l2.68-4.76,3.15,1.77-2.68,4.76,1.95,1.1-1.39,2.47-2-1.09L120.41,299a3,3,0,0,0-.38.93,1,1,0,0,0,.09.66,1.56,1.56,0,0,0,.5.53c.23.15.51.33.86.52l-1.67,3-1.29-.73a4.89,4.89,0,0,1-1.62-1.36,3.65,3.65,0,0,1-.67-1.52,4,4,0,0,1,0-1.54,5,5,0,0,1,.53-1.4l5.36-9.52-1.58-.89,1.39-2.47Z" transform="translate(-57.67 -29.4)"/><path class="b" d="M130.24,289.77l2.44-4.89,3.24,1.62-2.44,4.89,2,1-1.27,2.54-2-1-4.44,8.92a3,3,0,0,0-.33.94,1,1,0,0,0,.13.66,1.47,1.47,0,0,0,.52.5c.23.14.53.3.89.48l-1.52,3.05-1.33-.66a4.84,4.84,0,0,1-1.69-1.28,3.62,3.62,0,0,1-.74-1.48,3.85,3.85,0,0,1,0-1.55,5.25,5.25,0,0,1,.45-1.42l4.87-9.78-1.61-.8,1.26-2.54Z" transform="translate(-57.67 -29.4)"/><path class="b" d="M141.57,306.27l-6.6-2.79-.95,2.25a1.69,1.69,0,0,0-.07,1.4,1.76,1.76,0,0,0,1,.93,1.42,1.42,0,0,0,1.49,0,3.33,3.33,0,0,0,.85-1l3.33,1.41a5.17,5.17,0,0,1-2.83,3,5,5,0,0,1-2,.42,5.7,5.7,0,0,1-2.22-.48,5.57,5.57,0,0,1-2.39-1.78,5,5,0,0,1-.95-2.44,5.09,5.09,0,0,1,.15-1.71,12.17,12.17,0,0,1,.66-1.92l2.31-5.46a13.71,13.71,0,0,1,.91-1.8,5.16,5.16,0,0,1,1.13-1.3,5,5,0,0,1,2.42-1,6.25,6.25,0,0,1,4.84,1.75,4.92,4.92,0,0,1,1.13,1.75,5.77,5.77,0,0,1-.26,4.24Zm-5.49-5.4,3.26,1.38.8-1.9a2.16,2.16,0,0,0,.16-1.6,1.88,1.88,0,0,0-2.38-1,2.18,2.18,0,0,0-1,1.23Z" transform="translate(-57.67 -29.4)"/><path class="b" d="M140.92,314.12l5.9-17,3.42,1.19-.63,1.81a10.46,10.46,0,0,1,2.56-.76,5.45,5.45,0,0,1,2.66.32l-1.25,3.62a3,3,0,0,0-1-.56,4.14,4.14,0,0,0-1.22-.22,3.24,3.24,0,0,0-1.34.23,3.52,3.52,0,0,0-1.27.84,4.33,4.33,0,0,0-.94,1.62l-3.5,10.09Z" transform="translate(-57.67 -29.4)"/><path class="b" d="M157.27,319.33l5.53-24.64,3.53.79L164,306l4.36,1,2.37-10.55,3.53.79-5.53,24.64-3.53-.79,2.46-11-4.36-1-2.46,11Z" transform="translate(-57.67 -29.4)"/><path class="b" d="M183.36,316.32l-7.09-1-.34,2.43a1.69,1.69,0,0,0,.3,1.36,1.8,1.8,0,0,0,1.22.64,1.43,1.43,0,0,0,1.43-.41,3.21,3.21,0,0,0,.57-1.14l3.59.49a5.21,5.21,0,0,1-3.82,4.53,5.5,5.5,0,0,1-2.27.11,5.43,5.43,0,0,1-2.76-1.1,4.83,4.83,0,0,1-1.56-2.11,4.94,4.94,0,0,1-.3-1.69,13.29,13.29,0,0,1,.13-2l.81-5.87a13.24,13.24,0,0,1,.42-2,4.83,4.83,0,0,1,2.82-3.16,5.49,5.49,0,0,1,3-.3,5.58,5.58,0,0,1,2.17.73,5.06,5.06,0,0,1,1.55,1.39,5.8,5.8,0,0,1,.85,4.16Zm-6.71-3.79,3.52.49.28-2a2.19,2.19,0,0,0-.26-1.59,1.89,1.89,0,0,0-2.57-.36,2.21,2.21,0,0,0-.68,1.47Z" transform="translate(-57.67 -29.4)"/><path class="b" d="M192.32,324.56l.1-1.84h-.07a6.3,6.3,0,0,1-1.52,1.44,3.35,3.35,0,0,1-2.06.42,4.25,4.25,0,0,1-1.29-.27,3.32,3.32,0,0,1-1.21-.79,3.41,3.41,0,0,1-.89-1.49,6.46,6.46,0,0,1-.24-2.45,12.88,12.88,0,0,1,.4-2.66,4.3,4.3,0,0,1,1-1.88,3.88,3.88,0,0,1,1.8-1,9.19,9.19,0,0,1,2.82-.21l.38,0a2,2,0,0,1,.39.06,2.35,2.35,0,0,0,.42.06l.54.06.1-1.87a2.87,2.87,0,0,0-.3-1.55,1.59,1.59,0,0,0-1.39-.68,2,2,0,0,0-1.31.39,2.16,2.16,0,0,0-.84,1.3l-3.51-.2a5.8,5.8,0,0,1,1.85-3.8,5.06,5.06,0,0,1,1.76-1,5.88,5.88,0,0,1,2.26-.28,6.26,6.26,0,0,1,2.1.47,5,5,0,0,1,1.68,1.16,5.21,5.21,0,0,1,1,1.84,6.78,6.78,0,0,1,.29,2.5l-.71,12.5Zm.43-7.72a4.8,4.8,0,0,0-1-.16,3.53,3.53,0,0,0-2,.43,2.24,2.24,0,0,0-1,2,2.68,2.68,0,0,0,.4,1.69,1.66,1.66,0,0,0,1.35.71A1.79,1.79,0,0,0,192,321a2.56,2.56,0,0,0,.61-1.67Z" transform="translate(-57.67 -29.4)"/><path class="b" d="M198.5,299.48l3.61,0,.07,20.19a2,2,0,0,0,.38,1.4,2.35,2.35,0,0,0,1.4.47v3.41a11.66,11.66,0,0,1-2.23-.19A3.92,3.92,0,0,1,200,324a3.28,3.28,0,0,1-1.08-1.5,7.3,7.3,0,0,1-.38-2.57Z" transform="translate(-57.67 -29.4)"/><path class="b" d="M205,306.68l-.26-5.46,3.61-.17.26,5.46,2.23-.11.14,2.84-2.24.1.47,10a2.9,2.9,0,0,0,.18,1,.94.94,0,0,0,.43.52,1.64,1.64,0,0,0,.7.18c.27,0,.61,0,1,0l.16,3.41-1.49.06a4.77,4.77,0,0,1-2.09-.29,3.73,3.73,0,0,1-1.38-.93,3.86,3.86,0,0,1-.78-1.33,5.23,5.23,0,0,1-.31-1.46l-.51-10.91-1.81.09-.13-2.84Z" transform="translate(-57.67 -29.4)"/><path class="b" d="M213.78,324.25l-2.86-25.09,3.59-.41,1,8.95h.07a5.28,5.28,0,0,1,1.2-1.55,3.52,3.52,0,0,1,2-.77,4.18,4.18,0,0,1,1.36.07,3.21,3.21,0,0,1,1.29.62,4.13,4.13,0,0,1,1,1.26,5.81,5.81,0,0,1,.54,2L224.53,323l-3.59.41-1.42-12.37a2.41,2.41,0,0,0-.63-1.5,1.62,1.62,0,0,0-1.37-.41,1.53,1.53,0,0,0-1.34.8,3.55,3.55,0,0,0-.18,1.87l1.38,12Z" transform="translate(-57.67 -29.4)"/><path class="c" d="M244.31,304l.14,14.78-2.48.61-3.59-7.91,0,0,.5,8.67-2.48.61-6.75-13.16,3-.73,3.84,8.26h.06l-.57-9.07,2.2-.54,3.63,8.31h0l-.45-9.1Z" transform="translate(-57.67 -29.4)"/><path class="c" d="M244.6,300.71l-.88-2.76,2.76-.87.88,2.75Zm5.24,16.5-4.36-13.71,2.76-.88,4.36,13.71Z" transform="translate(-57.67 -29.4)"/><path class="c" d="M250.76,301.77l-1.48-4.11,2.73-1,1.48,4.11,1.68-.6.77,2.13-1.69.61,2.7,7.5a3,3,0,0,0,.36.72.86.86,0,0,0,.45.29,1.29,1.29,0,0,0,.58,0c.21-.06.47-.14.77-.25l.93,2.57-1.13.4a4,4,0,0,1-1.66.27,3,3,0,0,1-2.19-1.22,4.16,4.16,0,0,1-.57-1.05l-3-8.22-1.36.49-.77-2.14Z" transform="translate(-57.67 -29.4)"/><path class="c" d="M261.94,313l-7.87-18.61,2.67-1.12,2.8,6.63,0,0a4.34,4.34,0,0,1,.58-1.46,2.82,2.82,0,0,1,1.33-1,3.36,3.36,0,0,1,1.06-.25,2.62,2.62,0,0,1,1.13.19,3.11,3.11,0,0,1,1.05.74,4.48,4.48,0,0,1,.87,1.41l4.3,10.16-2.67,1.13-3.87-9.17a2,2,0,0,0-.83-1,1.27,1.27,0,0,0-1.14,0,1.22,1.22,0,0,0-.85.91,2.84,2.84,0,0,0,.29,1.48l3.76,8.91Z" transform="translate(-57.67 -29.4)"/><path class="d" d="M200,30.37h-.54l.67,125.54L308.13,93a124.79,124.79,0,0,0-96.86-62.12c-3.72-.33-7.47-.5-11.27-.5" transform="translate(-57.67 -29.4)"/><path class="e" d="M200,280.67A125.64,125.64,0,1,1,325.63,155,125.78,125.78,0,0,1,200,280.67ZM200,31.4A123.64,123.64,0,1,0,323.63,155,123.78,123.78,0,0,0,200,31.4Z" transform="translate(-57.67 -29.4)"/><rect class="e" x="140.83" y="0.96" width="1.73" height="11.46"/><polyline class="e" points="203.83 17.01 198.1 26.94 199.6 27.81 205.34 17.88"/><polyline class="e" points="250.37 62.42 240.44 68.15 241.31 69.65 251.23 63.92"/><rect class="e" x="207.64" y="34.95" width="8.8" height="0.81" transform="translate(97.47 213.25) rotate(-84.12)"/><polyline class="e" points="167.43 3.48 165.6 12.09 166.39 12.26 168.22 3.65"/><polyline class="e" points="180.16 6.77 177.44 15.14 178.21 15.39 180.93 7.02"/><polyline class="e" points="192.47 11.38 188.89 19.42 189.63 19.75 193.21 11.71"/><polyline class="e" points="215.32 24.31 210.15 31.43 210.8 31.9 215.97 24.78"/><polyline class="e" points="225.61 32.49 219.72 39.03 220.32 39.58 226.21 33.03"/><polyline class="e" points="234.98 41.71 228.44 47.6 228.98 48.2 235.53 42.31"/><polyline class="e" points="243.34 51.85 236.22 57.03 236.7 57.68 243.82 52.51"/><path class="f" d="M132.38,204.32a3,3,0,0,0-1.19-2.16,3.13,3.13,0,0,0-2.14-.54,2.65,2.65,0,0,0-2.05,1.12,3.12,3.12,0,0,0-.54,2.13,3.41,3.41,0,0,0,.57,1.55,3.76,3.76,0,0,0,2.23,1.21l3.62,1a8.53,8.53,0,0,1,4.91,3,9.73,9.73,0,0,1,1.74,4.69,8.72,8.72,0,0,1-.31,3.51,9.09,9.09,0,0,1-1.54,3,8.34,8.34,0,0,1-2.58,2.2,8.86,8.86,0,0,1-3.47,1.06,8.56,8.56,0,0,1-6.26-1.64,8.21,8.21,0,0,1-2.25-2.55,9.85,9.85,0,0,1-1.21-3.77l5.57-.57a5.45,5.45,0,0,0,1.07,2.17,2.56,2.56,0,0,0,2.45.8,3.49,3.49,0,0,0,2.21-1.07A2.94,2.94,0,0,0,134,217a3.47,3.47,0,0,0-.85-2,5.12,5.12,0,0,0-2.48-1.27l-2.94-.75a9.69,9.69,0,0,1-4.7-2.65,8,8,0,0,1-2.11-4.85,8.51,8.51,0,0,1,2-6.47,7.92,7.92,0,0,1,2.54-2.05,9.34,9.34,0,0,1,3.3-.95,8.52,8.52,0,0,1,3.4.29,7.7,7.7,0,0,1,2.83,1.53,8.76,8.76,0,0,1,2,2.57,9.13,9.13,0,0,1,1,3.33Z" transform="translate(-57.67 -29.4)"/><path class="f" d="M117.26,221.54a12.89,12.89,0,0,0,1,3.51,10.6,10.6,0,0,0,1.76,2.84,7.87,7.87,0,0,0,3.17,2.16.83.83,0,0,0,.56-1.57,6,6,0,0,1-2.49-1.7,9.72,9.72,0,0,1-1.91-3.54c-.16-.55-.27-1-.33-1.36,0-.17-.06-.3-.07-.39a.46.46,0,0,1,0-.1v0h0l-.25,0,.25,0h0l-.25,0,.25,0a.83.83,0,0,0-1.65.17Z" transform="translate(-57.67 -29.4)"/><path class="b" d="M186.21,224.39,183.92,183l5.93-.33,1.37,24.79h.12l6.45-13.25,5.93-.33-6.38,12.38,9.47,17-6.46.36-6.06-12.45-2.6,4.64.46,8.26Z" transform="translate(-57.67 -29.4)"/><path class="b" d="M205.14,229.59a14.37,14.37,0,0,0,2.14-.38,14.07,14.07,0,0,0,2.09-.72,8.1,8.1,0,0,0,2.07-1.33.83.83,0,0,0,.05-1.17.82.82,0,0,0-1.17-.05,6.64,6.64,0,0,1-1.64,1,10.79,10.79,0,0,1-1.81.62,12.14,12.14,0,0,1-1.34.27,2.57,2.57,0,0,1-.39,0l-.1,0h0a.83.83,0,1,0,.13,1.65Z" transform="translate(-57.67 -29.4)"/><path class="g" d="M223,208.07l-11.73-1-.35,4a2.85,2.85,0,0,0,.6,2.21,2.94,2.94,0,0,0,2.05.94,2.33,2.33,0,0,0,2.32-.79,5.11,5.11,0,0,0,.84-1.91l5.92.52a8.53,8.53,0,0,1-5.88,7.73,9.23,9.23,0,0,1-3.72.37,9.06,9.06,0,0,1-4.63-1.57,7.92,7.92,0,0,1-3.36-6.09,23.58,23.58,0,0,1,.06-3.33l.86-9.69a21.61,21.61,0,0,1,.52-3.29,8,8,0,0,1,1.11-2.6,8,8,0,0,1,3.26-2.81,9,9,0,0,1,4.83-.74,9.52,9.52,0,0,1,3.63,1,8.24,8.24,0,0,1,2.64,2.16,9.52,9.52,0,0,1,1.75,6.76Zm-11.32-5.67,5.81.51.3-3.37a3.59,3.59,0,0,0-.57-2.59,3.1,3.1,0,0,0-4.23-.38,3.6,3.6,0,0,0-1,2.46Z" transform="translate(-57.67 -29.4)"/><path class="g" d="M217.56,187.19h0a7.7,7.7,0,0,1,1.84-.2,6.91,6.91,0,0,1,3.77,1,5.91,5.91,0,0,1,1.72,1.76,9.37,9.37,0,0,1,1.23,3.13.83.83,0,1,0,1.62-.35,10.92,10.92,0,0,0-1.46-3.68,7.42,7.42,0,0,0-3.43-2.89,9.61,9.61,0,0,0-5.72-.4.83.83,0,0,0,.43,1.6Z" transform="translate(-57.67 -29.4)"/><path class="h" d="M174.12,228.08l.25-3h-.11a11,11,0,0,1-2.56,2.3,5.59,5.59,0,0,1-3.42.59,7.31,7.31,0,0,1-2.09-.5,5.52,5.52,0,0,1-2-1.36,5.75,5.75,0,0,1-1.4-2.49,10.93,10.93,0,0,1-.27-4,21,21,0,0,1,.78-4.35,7.06,7.06,0,0,1,1.77-3,6.36,6.36,0,0,1,3-1.58,14.65,14.65,0,0,1,4.64-.23l.64.06a4.06,4.06,0,0,1,.64.11,3.76,3.76,0,0,0,.69.12,7.19,7.19,0,0,1,.86.13l.26-3.08a4.51,4.51,0,0,0-.42-2.55,2.56,2.56,0,0,0-2.24-1.18,3.34,3.34,0,0,0-2.19.57,3.62,3.62,0,0,0-1.43,2.1l-5.75-.48A9.5,9.5,0,0,1,167,200a8.54,8.54,0,0,1,2.94-1.6,9.78,9.78,0,0,1,3.72-.36,10.38,10.38,0,0,1,3.43.88,7.88,7.88,0,0,1,2.7,2,8.6,8.6,0,0,1,1.62,3.06,11.12,11.12,0,0,1,.35,4.13L180,228.59Zm1.07-12.65a9.6,9.6,0,0,0-1.61-.32,5.86,5.86,0,0,0-3.36.63,3.65,3.65,0,0,0-1.64,3.16,4.39,4.39,0,0,0,.58,2.8,2.76,2.76,0,0,0,2.18,1.24,2.94,2.94,0,0,0,2.43-.79,4.17,4.17,0,0,0,1.08-2.72Z" transform="translate(-57.67 -29.4)"/><path class="h" d="M169.71,233h0a11.26,11.26,0,0,1-2.31.2,11,11,0,0,1-5.09-1.31,5.85,5.85,0,0,1-1.77-1.58,3.2,3.2,0,0,1-.64-1.77.92.92,0,0,0-.87-.86.84.84,0,0,0-.94.74,4.25,4.25,0,0,0,.69,2.59,8,8,0,0,0,3.61,2.9,13,13,0,0,0,4.56,1,13.71,13.71,0,0,0,2.78-.19c.7-.12,1.28-.67,1.25-1.14S170.37,232.9,169.71,233Z" transform="translate(-57.67 -29.4)"/><path class="h" d="M254.35,191.6v29.54h-5.94v-2.85h-.12a8.47,8.47,0,0,1-2.24,2.3,5.84,5.84,0,0,1-3.36.9,6.89,6.89,0,0,1-2.21-.38,5.08,5.08,0,0,1-2-1.25,6.34,6.34,0,0,1-1.4-2.24,9.43,9.43,0,0,1-.52-3.35V191.6h5.94v20.45a4,4,0,0,0,.76,2.57,2.61,2.61,0,0,0,2.15.93,2.49,2.49,0,0,0,2.33-1.05,5.83,5.83,0,0,0,.65-3V191.6Z" transform="translate(-57.67 -29.4)"/><path class="h" d="M232.33,219.34a14.74,14.74,0,0,0,1.75,3.61,8.27,8.27,0,0,0,2.39,2.4,5.41,5.41,0,0,0,1.69.71,5.28,5.28,0,0,0,2,.06.82.82,0,0,0,.7-.94.83.83,0,0,0-.95-.69,3.66,3.66,0,0,1-1.37,0,4.38,4.38,0,0,1-2-1.11,9.94,9.94,0,0,1-2-2.87c-.22-.46-.38-.87-.49-1.16s-.09-.26-.12-.33a.51.51,0,0,1,0-.09v0h0a.83.83,0,0,0-1.59.47Z" transform="translate(-57.67 -29.4)"/><path class="i" d="M142.14,220.84V179.35h5.94v14.8h.12a8.33,8.33,0,0,1,2.24-2.3,5.75,5.75,0,0,1,3.35-.91,6.91,6.91,0,0,1,2.22.38,5.08,5.08,0,0,1,2,1.25,6.48,6.48,0,0,1,1.4,2.25,9.39,9.39,0,0,1,.52,3.35v22.67H154V200.38a3.93,3.93,0,0,0-.76-2.56,2.61,2.61,0,0,0-2.15-.93,2.52,2.52,0,0,0-2.34,1.05,5.92,5.92,0,0,0-.64,3v19.87Z" transform="translate(-57.67 -29.4)"/><path class="i" d="M264.78,237.8h0a6.32,6.32,0,0,1-1.69,2.52,6.16,6.16,0,0,1-2.43,1.38,5.16,5.16,0,0,1-2.94,0l-.28-.1c-.64-.24-1.32-.16-1.55.24s.14,1,.86,1.27a4.59,4.59,0,0,0,.48.17,7.41,7.41,0,0,0,4.63-.1,7.5,7.5,0,0,0,3.87-3.14,6.37,6.37,0,0,0,.82-1.94.8.8,0,0,0-.71-.94A1,1,0,0,0,264.78,237.8Z" transform="translate(-57.67 -29.4)"/><path class="i" d="M154.08,188l-.35-.29.34.29h0l-.35-.29.34.29.08,0a4.9,4.9,0,0,1,.94-.35,4.62,4.62,0,0,1,2.52,0,3.67,3.67,0,0,1,1.32.77A4.23,4.23,0,0,1,160,190.1a5.85,5.85,0,0,1,.27.92,1.17,1.17,0,0,0,1.12.95.92.92,0,0,0,.91-1,6.21,6.21,0,0,0-.19-1.17,5.44,5.44,0,0,0-2.09-3.06,6.59,6.59,0,0,0-2.48-1.05,7.74,7.74,0,0,0-3.36.08,7.34,7.34,0,0,0-1.82.7l-.21.13a.75.75,0,0,0,0,1.34A1.86,1.86,0,0,0,154.08,188Z" transform="translate(-57.67 -29.4)"/><path class="i" d="M255,236.08,260.6,195l5.89.8-.36,2.65a14.93,14.93,0,0,1,2.54-1.83,5.58,5.58,0,0,1,3.47-.41,5.4,5.4,0,0,1,4.76,3.47,7.71,7.71,0,0,1,.42,2.52,24.74,24.74,0,0,1-.29,3.9l-1.51,11.15a42.12,42.12,0,0,1-.81,4.65,5.67,5.67,0,0,1-3.24,4,6.27,6.27,0,0,1-3.45.29,6,6,0,0,1-3-1.2,7,7,0,0,1-2-2.54h-.12l-2,14.49Zm16-30a5.44,5.44,0,0,0-.3-3,2.42,2.42,0,0,0-2.05-1.39,2.62,2.62,0,0,0-2.27.72,4.08,4.08,0,0,0-1.16,2.52l-1.55,11.37a3.25,3.25,0,0,0,.53,2.4,2.82,2.82,0,0,0,2,1.18,2.44,2.44,0,0,0,2.42-.73,4.81,4.81,0,0,0,.94-2.34Z" transform="translate(-57.67 -29.4)"/><path class="i" d="M272.07,191.81h0a15.31,15.31,0,0,1,4.69,1,8.61,8.61,0,0,1,3,2,5.88,5.88,0,0,1,1,1.51,6.14,6.14,0,0,1,.54,1.93.72.72,0,0,0,.77.71.82.82,0,0,0,.58-.94,8,8,0,0,0-.74-2.6,7.85,7.85,0,0,0-2.67-3,13.27,13.27,0,0,0-4.78-1.93,15.46,15.46,0,0,0-2.45-.32.76.76,0,0,0-.7.81A.77.77,0,0,0,272.07,191.81Z" transform="translate(-57.67 -29.4)"/><path class="b" d="M180.58,125V71.63l-10.53,7.74V68.22l10.53-7.75h10.53V125Z" transform="translate(-57.67 -29.4)"/><path class="b" d="M199.78,75.65A16.07,16.07,0,0,1,201.07,69a15.37,15.37,0,0,1,3.46-5,14.73,14.73,0,0,1,5-3.15,16.73,16.73,0,0,1,11.88,0,14.87,14.87,0,0,1,5,3.15,15.53,15.53,0,0,1,3.46,5,16.07,16.07,0,0,1,1.29,6.61v34.16a16.07,16.07,0,0,1-1.29,6.61,15.42,15.42,0,0,1-3.46,5,14.87,14.87,0,0,1-5,3.15,16.73,16.73,0,0,1-11.88,0,14.73,14.73,0,0,1-5-3.15,15.26,15.26,0,0,1-3.46-5,16.07,16.07,0,0,1-1.29-6.61Zm10.53,34.16a5.23,5.23,0,0,0,1.44,3.77,5.39,5.39,0,0,0,7.44,0,5.24,5.24,0,0,0,1.45-3.77V75.65a5.24,5.24,0,0,0-1.45-3.77,5.39,5.39,0,0,0-7.44,0,5.23,5.23,0,0,0-1.44,3.77Z" transform="translate(-57.67 -29.4)"/><path class="b" d="M142.06,170V141.2h5.79V144H148a8.31,8.31,0,0,1,2.18-2.24,5.71,5.71,0,0,1,3.27-.88,5.23,5.23,0,0,1,3.12.91,9.43,9.43,0,0,1,2,2,12.13,12.13,0,0,1,2.38-2,6.67,6.67,0,0,1,3.63-.85,7.26,7.26,0,0,1,2.21.37,5.46,5.46,0,0,1,2.05,1.22,6.54,6.54,0,0,1,1.47,2.18,8.33,8.33,0,0,1,.57,3.27V170h-5.79V150.05a3.77,3.77,0,0,0-.74-2.49,2.53,2.53,0,0,0-2.09-.91,2.43,2.43,0,0,0-2.27,1,5.65,5.65,0,0,0-.63,3V170h-5.78V150.05a3.83,3.83,0,0,0-.74-2.49,2.53,2.53,0,0,0-2.1-.91,2.44,2.44,0,0,0-2.27,1,5.66,5.66,0,0,0-.62,3V170Z" transform="translate(-57.67 -29.4)"/><path class="b" d="M175,135.36v-5.79h5.79v5.79Zm0,34.6V141.2h5.79V170Z" transform="translate(-57.67 -29.4)"/><path class="b" d="M185,170V141.2h5.78V144h.12a8.17,8.17,0,0,1,2.18-2.24,5.67,5.67,0,0,1,3.26-.88,6.81,6.81,0,0,1,2.16.37,5,5,0,0,1,1.93,1.22,6.33,6.33,0,0,1,1.36,2.18,9.2,9.2,0,0,1,.51,3.27V170h-5.79V150.05a3.83,3.83,0,0,0-.73-2.49,2.56,2.56,0,0,0-2.1-.91,2.43,2.43,0,0,0-2.27,1,5.65,5.65,0,0,0-.63,3V170Z" transform="translate(-57.67 -29.4)"/><path class="b" d="M223.68,141.2V170h-5.79v-2.78h-.11a8.2,8.2,0,0,1-2.19,2.24,5.58,5.58,0,0,1-3.26.88,6.44,6.44,0,0,1-2.15-.37,5,5,0,0,1-1.93-1.21,6.14,6.14,0,0,1-1.36-2.19,9.14,9.14,0,0,1-.51-3.26V141.2h5.78v19.91a3.88,3.88,0,0,0,.74,2.5,2.56,2.56,0,0,0,2.1.91,2.45,2.45,0,0,0,2.27-1,5.81,5.81,0,0,0,.62-2.95V141.2Z" transform="translate(-57.67 -29.4)"/><path class="b" d="M229,141.2v-8.73h5.78v8.73h3.58v4.54h-3.58v15.94a5.09,5.09,0,0,0,.2,1.59,1.57,1.57,0,0,0,.65.85,2.5,2.5,0,0,0,1.11.34q.65.06,1.62.06V170H236a7.7,7.7,0,0,1-3.31-.62,5.87,5.87,0,0,1-3.29-3.77,8,8,0,0,1-.37-2.36V145.74h-2.9V141.2Z" transform="translate(-57.67 -29.4)"/><path class="b" d="M257.94,157.77H246.48v3.91a2.81,2.81,0,0,0,.76,2.1,2.91,2.91,0,0,0,2.08.74,2.27,2.27,0,0,0,2.18-1,5,5,0,0,0,.65-1.93h5.79a8.29,8.29,0,0,1-2.33,6.13,8.05,8.05,0,0,1-2.72,1.87,9.9,9.9,0,0,1-8.2-.45,7.69,7.69,0,0,1-3.77-5.62,21.42,21.42,0,0,1-.23-3.23v-9.47a21.56,21.56,0,0,1,.23-3.24,8,8,0,0,1,.85-2.61,7.85,7.85,0,0,1,2.92-3,8.85,8.85,0,0,1,4.63-1.14,9.27,9.27,0,0,1,3.6.68,8.1,8.1,0,0,1,2.75,1.88,9.28,9.28,0,0,1,2.27,6.4Zm-11.46-4.54h5.67v-3.29a3.51,3.51,0,0,0-.76-2.47,3,3,0,0,0-4.15,0,3.56,3.56,0,0,0-.76,2.47Z" transform="translate(-57.67 -29.4)"/></svg>