<svg xmlns="http://www.w3.org/2000/svg" xmlns:xlink="http://www.w3.org/1999/xlink" viewBox="-14276.999 -5788 41 41">
  <defs>
    <style>
      .cls-1 {
        opacity: 0.05;
      }

      .cls-2 {
        clip-path: url(#clip-path);
      }

      .cls-3 {
        fill: #e73088;
      }

      .cls-4 {
        fill: #1d1d1b;
      }

      .cls-5 {
        fill: #009dd9;
      }

      .cls-6 {
        fill: #100c08;
      }

      .cls-7 {
        fill: #d9a34b;
      }

      .cls-8 {
        fill: #fff;
      }

      .cls-9 {
        fill: #ed7223;
      }
    </style>
    <clipPath id="clip-path">
      <ellipse id="Ellipse_3178" data-name="Ellipse 3178" cx="20.5" cy="20.5" rx="20.5" ry="20.5"/>
    </clipPath>
  </defs>
  <g id="Group_25798" data-name="Group 25798" transform="translate(-15200 -5774)">
    <g id="Group_25797" data-name="Group 25797" transform="translate(884.801 -68.9)">
      <ellipse id="Ellipse_3177" data-name="Ellipse 3177" class="cls-1" cx="20.5" cy="20.5" rx="20.5" ry="20.5" transform="translate(38.2 54.9)"/>
      <g id="Group_25796" data-name="Group 25796" transform="translate(38.2 54.9)">
        <g id="Group_25795" data-name="Group 25795" class="cls-2">
          <g id="Group_25793" data-name="Group 25793" transform="translate(-26.129 -37.515)">
            <path id="Path_24439" data-name="Path 24439" class="cls-3" d="M76.2,103.683a2.777,2.777,0,0,0,.615-.683H76.2Z" transform="translate(-24.104 -32.617)"/>
            <path id="Path_24440" data-name="Path 24440" class="cls-4" d="M75.788,104.092a.867.867,0,0,1-.41-.068.948.948,0,0,1-.478-.82l.068-.683a.831.831,0,0,1,.82-.82H76.4a.866.866,0,0,1,.683,1.367,10.51,10.51,0,0,1-.82.888A1.267,1.267,0,0,1,75.788,104.092Z" transform="translate(-23.692 -32.205)"/>
            <path id="Path_24441" data-name="Path 24441" class="cls-5" d="M71.785,113.324a93.254,93.254,0,0,0,12.3-6.7c.2-.137,1.708-.273,3.075-.683-2.118-1.23-2.938-4.168-2.665-6.97-.683.888-1.093,2.187-1.572,2.87.478-1.982-.41-2.255-1.23-2.6-.683-.273-1.5,1.3-1.982,2.6-2.323,1.093-8.268,4.92-9.02,4.3-3.007-3.007-6.833-6.628-11-6.56,0,.068-.068.068-.068.137v-.137h.068c.342-.82-1.093-2.733-3.485-4.647-3.28-2.665-.068-2.8-2.733-3.143-.888-.068-1.23,1.5-2.323,2.733-2.05,2.323-4.92,4.032-2.528,5.672h-.137c-4.51,0-10.592,6.287-11.412,5.6a110.837,110.837,0,0,1-6.97-9.02,5.339,5.339,0,0,1-6.355,3.758c-.2-.068-.342-.137-.547-.205.957,1.367,2.938,2.392,3.143,2.733,1.025,1.23,6.218,10.113,9.293,11.207,1.572.547,2.8.137,7.858-3.007-.273,8.132.41,45.92.41,45.92-7.858.547-8.542,8.815-8.542,8.815l15.853-1.572c.273-2.87.068-4.237,2.665-29.862.41-2.392,3.69,29.725,3.69,29.725l15.853,1.3s-.752-8.268-8.61-8.61c0,0-.41-41.137-.478-46.535,2.733,1.982,5.877,3.417,7.448,2.87" transform="translate(-7.321 -29.069)"/>
            <path id="Path_24442" data-name="Path 24442" class="cls-6" d="M35.044,166.285a.835.835,0,0,1-.615-.273.877.877,0,0,1-.273-.683c0-.068.82-8.4,8.542-9.5-.068-5.125-.547-33.962-.41-43.6-4.1,2.528-5.467,2.87-7.243,2.255-2.46-.888-5.672-5.467-8.473-9.7-.547-.82-1.025-1.5-1.23-1.777-.068,0-.2-.137-.41-.273a10.415,10.415,0,0,1-2.8-2.528.821.821,0,0,1,0-.957,1,1,0,0,1,.957-.342l.615.205a4.407,4.407,0,0,0,5.262-3.143.8.8,0,0,1,.683-.615.784.784,0,0,1,.82.342,31.867,31.867,0,0,1,2.187,4.1,27.2,27.2,0,0,0,2.938,5.262c.547-.273,1.64-1.025,2.6-1.64,2.46-1.64,5.74-3.827,8.473-4.51-.068-.137-.068-.342-.137-.478-.137-1.3,1.025-2.392,2.255-3.622a13.568,13.568,0,0,0,1.367-1.435,5.862,5.862,0,0,0,.888-1.367c.478-.82,1.025-1.777,2.187-1.708.888.068,1.435.205,1.708.615a1.355,1.355,0,0,1,.205.957c0,.137-.137.615,1.3,1.708,1.367,1.093,3.348,2.938,3.758,4.51,3.827.342,7.312,3.348,10.523,6.56a34.526,34.526,0,0,0,5.262-2.665c1.025-.547,1.913-1.093,2.665-1.435.41-1.093,1.093-2.392,1.913-2.733a1.517,1.517,0,0,1,1.093-.068,4.05,4.05,0,0,1,1.3.752,5.7,5.7,0,0,1,.547-.82.845.845,0,0,1,.957-.273.916.916,0,0,1,.547.888c-.205,2.187.273,5.057,2.187,6.15a.779.779,0,0,1,.41.82,1.058,1.058,0,0,1-.547.752c-.888.273-1.777.41-2.392.547-.2.068-.478.068-.547.137a98.81,98.81,0,0,1-12.437,6.765h0c-1.777.683-4.51-.547-6.833-2.05.137,8.61.41,38.813.478,44.075,7.722.888,8.61,9.225,8.61,9.293a.934.934,0,0,1-.957.957l-15.785-1.162a.758.758,0,0,1-.752-.752c-.752-7.107-1.845-17.083-2.6-23.507-1.435,14.282-1.708,18.928-1.845,21.32a20.993,20.993,0,0,1-.205,2.323.808.808,0,0,1-.752.752L35.18,166.285Zm8.132-56.443a.971.971,0,0,1,.41.137.857.857,0,0,1,.41.752c-.273,8.063.342,45.51.41,45.852a.892.892,0,0,1-.82.888c-5.467.41-7.107,4.92-7.585,6.97l14.077-1.435c.068-.478.068-.957.137-1.5.205-2.733.547-8.337,2.528-27.607a.918.918,0,0,1,.957-.888c1.025,0,1.093,0,2.87,15.717.683,6.082,1.3,12.163,1.5,14.213L72.08,164.1c-.478-2.05-2.118-6.56-7.585-6.765a.831.831,0,0,1-.82-.82c0-.41-.41-41.205-.478-46.535a.866.866,0,0,1,1.367-.683c2.87,2.255,5.6,3.212,6.56,2.8a83.2,83.2,0,0,0,12.163-6.628,4.88,4.88,0,0,1,1.162-.342c.2,0,.342-.068.547-.068a6.989,6.989,0,0,1-1.5-3.485c-.068.068-.068.137-.137.273a.876.876,0,0,1-1.025.342.739.739,0,0,1-.478-.957c.273-1.162.137-1.3-.547-1.5a5.738,5.738,0,0,0-1.025,2.05.722.722,0,0,1-.41.478c-.683.342-1.708.888-2.87,1.572-4.852,2.733-6.218,3.348-7.038,2.6-3.212-3.212-6.56-6.218-10.045-6.355a.94.94,0,0,1-.752.068.888.888,0,0,1-.547-.82v-.137a.971.971,0,0,1,.137-.41c-.137-.478-1.025-1.777-3.212-3.553-1.572-1.3-1.913-2.187-1.913-2.87a.743.743,0,0,1-.342-.068c-.137.137-.342.547-.547.82a9.745,9.745,0,0,1-1.093,1.64c-.478.547-.957,1.025-1.435,1.5-.82.82-1.777,1.777-1.777,2.255,0,.205.342.478.547.615a.951.951,0,0,1,.342.957.8.8,0,0,1-.752.615h-.137c-2.6,0-6.492,2.665-9.088,4.373-2.665,1.777-3.622,2.46-4.442,1.777l-.068-.068a26.733,26.733,0,0,1-3.485-6.013c-.41-.888-.82-1.777-1.23-2.528a6.1,6.1,0,0,1-4.578,2.87,3.791,3.791,0,0,1,.547.41,2.539,2.539,0,0,1,.752.615c.273.342.683.957,1.3,1.913,1.777,2.665,5.467,8.337,7.585,9.02,1.162.41,2.05.273,7.107-2.938A.349.349,0,0,1,43.175,109.842ZM71.4,112.848Z" transform="translate(-6.933 -28.593)"/>
            <path id="Path_24443" data-name="Path 24443" class="cls-7" d="M4.148,43.507a1.039,1.039,0,0,1-1.367,0,1.039,1.039,0,0,1,0-1.367l10.8-10.387c.41-.342-1.367-2.46,1.572-5.262,0,0,3.553-3.417,6.218-.683s-.957,6.15-.957,6.15c-2.8,2.665-5.125.82-5.467,1.23Z" transform="translate(-0.774 -7.837)"/>
            <path id="Path_24444" data-name="Path 24444" class="cls-6" d="M1.765,20.773h0a1.75,1.75,0,0,1-1.3-.547A1.755,1.755,0,0,1,.535,17.7L11.058,7.517V7.448c-.205-.957-.683-3.007,1.845-5.467A7.19,7.19,0,0,1,17.276,0h.068a4.157,4.157,0,0,1,2.938,1.3,4.2,4.2,0,0,1,1.23,2.938c-.068,2.323-2.118,4.305-2.187,4.442a5.358,5.358,0,0,1-5.6,1.435c-.068,0-.068,0-.137-.068L3.063,20.227h0A1.867,1.867,0,0,1,1.765,20.773Zm.683-1.162Zm14.828-17.9a5.592,5.592,0,0,0-3.212,1.5C12.22,4.988,12.493,6.218,12.7,7.038c.068.478.2,1.025-.205,1.435L1.7,18.86c-.068.068-.068.068,0,.137h.137L12.561,8.61a1.483,1.483,0,0,1,1.5-.137,3.791,3.791,0,0,0,3.963-1.025,5.443,5.443,0,0,0,1.64-3.212,2.192,2.192,0,0,0-.752-1.708,1.866,1.866,0,0,0-1.64-.82Z" transform="translate(0.038)"/>
            <path id="Path_24445" data-name="Path 24445" class="cls-5" d="M30.4,97.931c-.752-1.025-1.23-1.777-1.367-1.913-3.007-3.143-6.833,3.622-6.355,4.783a5.152,5.152,0,0,0,.41.888l.615.205a5.507,5.507,0,0,0,6.7-3.963" transform="translate(-7.144 -30.144)"/>
            <path id="Path_24446" data-name="Path 24446" class="cls-6" d="M24.669,102.507a11.175,11.175,0,0,1-1.5-.137c-.068,0-.137-.068-.205-.068a3.332,3.332,0,0,0-.478-.205,1.226,1.226,0,0,1-.478-.342,4.092,4.092,0,0,1-.547-1.093c-.547-1.3,1.435-4.852,3.485-6.15a3.179,3.179,0,0,1,4.305.478c.137.137.342.478,1.23,1.708l.2.273a.949.949,0,0,1,.137.752A6.408,6.408,0,0,1,24.669,102.507Zm-1.093-1.777a4.714,4.714,0,0,0,5.467-3.007c-.478-.683-.957-1.367-1.025-1.435a1.491,1.491,0,0,0-1.777-.41c-1.708.752-3.143,3.69-3.143,4.373l.2.41C23.371,100.593,23.507,100.662,23.576,100.73Zm-.478-.547Zm0-.068Z" transform="translate(-6.74 -29.732)"/>
            <path id="Path_24447" data-name="Path 24447" class="cls-5" d="M69.1,96.626a9.373,9.373,0,1,0-14.76-4.988A8.993,8.993,0,0,0,58.376,97.1" transform="translate(-17.077 -25.286)"/>
            <path id="Path_24448" data-name="Path 24448" class="cls-6" d="M58.062,97.6a1.267,1.267,0,0,1-.478-.137A10.176,10.176,0,1,1,69.2,96.913a.949.949,0,0,1-1.23-.137.878.878,0,0,1,.137-1.23A8.489,8.489,0,0,0,71.113,86.6,8.648,8.648,0,0,0,67.15,81.4a8.151,8.151,0,0,0-6.423-.82,8.6,8.6,0,0,0-6.013,10.455,8.458,8.458,0,0,0,3.69,4.988.812.812,0,0,1,.273,1.162A.6.6,0,0,1,58.062,97.6Z" transform="translate(-16.694 -24.89)"/>
            <path id="Path_24449" data-name="Path 24449" class="cls-8" d="M52.63,103.723a18.385,18.385,0,0,1,2.87,8.747c.273,4.988-3.963,8.268-3.963,8.268l-.137,30.34,23.712-.137-.888-30.34a12.875,12.875,0,0,1-3.758-8.747,14.325,14.325,0,0,1,2.8-8.815l-2.733-1.64a13.029,13.029,0,0,0-1.982,4.237c-.752,2.8-.957,9.567-.957,9.567l-9.157.137s-.2-6.082-1.093-8.473a28.119,28.119,0,0,0-2.118-4.578Z" transform="translate(-16.251 -32.11)"/>
            <path id="Path_24450" data-name="Path 24450" class="cls-6" d="M50.988,151.5a.835.835,0,0,1-.615-.273,1.018,1.018,0,0,1-.273-.615l.137-30.34a.742.742,0,0,1,.273-.615A10.788,10.788,0,0,0,53.517,112a24.763,24.763,0,0,0-2.05-8.405.9.9,0,0,1,.342-1.162l2.665-1.5a.876.876,0,0,1,1.162.342,29.867,29.867,0,0,1,2.187,4.715c.683,1.982,1.025,6.7,1.093,8.61l7.448-.137c.068-2.05.273-7.243.957-9.635a13.306,13.306,0,0,1,2.118-4.578.853.853,0,0,1,1.093-.205l2.733,1.64a1.063,1.063,0,0,1,.41.547.842.842,0,0,1-.137.683,16.2,16.2,0,0,0-1.982,8.337,13.652,13.652,0,0,0,2.87,8.2.776.776,0,0,1,.205.547l.888,30.34a.954.954,0,0,1-.2.615,1.018,1.018,0,0,1-.615.273l-23.712.273Zm1.025-30.818-.137,29.11,22-.137-.888-29.178a14.993,14.993,0,0,1-3.075-9.088,19.065,19.065,0,0,1,1.777-8.473l-1.367-.82a10.9,10.9,0,0,0-1.367,3.348c-.752,2.665-.888,9.908-.888,10.045a.831.831,0,0,1-.82.82l-9.157.068h0a.789.789,0,0,1-.82-.82c0-.068-.2-6.7-1.025-8.952a35.07,35.07,0,0,0-1.64-3.69l-1.23.683a26.134,26.134,0,0,1,1.913,8.337A12.733,12.733,0,0,1,52.013,120.683Z" transform="translate(-15.839 -31.645)"/>
            <path id="Path_24451" data-name="Path 24451" class="cls-9" d="M118.08,106.639c.547-2.528-.957-5.193-2.87-5.808a2.245,2.245,0,0,0-2.733.888c-.273,2.938.547,6.082,2.8,7.312a3.845,3.845,0,0,0,2.8-2.392" transform="translate(-35.576 -31.882)"/>
            <path id="Path_24452" data-name="Path 24452" class="cls-6" d="M114.764,109.492a.971.971,0,0,1-.41-.137c-2.87-1.572-3.553-5.262-3.28-8.2a.487.487,0,0,1,.205-.41,3.177,3.177,0,0,1,3.69-1.23c2.46.82,4.1,4.032,3.417,6.833h0c-.342,1.367-1.435,2.392-3.348,3.075C114.969,109.492,114.9,109.492,114.764,109.492Zm-1.982-7.858c-.137,2.118.342,4.852,2.118,6.082q1.64-.615,1.845-1.64h0a4.393,4.393,0,0,0-2.323-4.852A1.285,1.285,0,0,0,112.783,101.634Zm4.852,4.578Z" transform="translate(-35.13 -31.455)"/>
          </g>
          <g id="Group_25794" data-name="Group 25794" transform="translate(5.358 1.551)">
            <path id="Path_24453" data-name="Path 24453" class="cls-8" d="M53.924,77.527C59.459,75.546,69.231,76.5,69.231,76.5l-.615-4.715s5.808-2.255,2.46-8.268c-2.87-5.125-8.063-1.3-8.063-1.3s.205-4.1-5.262-3.827c-5.4.273-3.827,4.92-3.827,4.92a4.974,4.974,0,0,0-6.355,3.143c-1.845,4.715,5.945,6.013,5.945,6.013S51.874,78.211,53.924,77.527Z" transform="translate(-46.435 -57.553)"/>
            <path id="Path_24454" data-name="Path 24454" class="cls-6" d="M53.188,78.032a1.15,1.15,0,0,1-.957-.41c-.888-.888-.547-3.212-.137-4.92-1.5-.41-4.373-1.367-5.535-3.417a4.031,4.031,0,0,1-.2-3.553,5.606,5.606,0,0,1,6.15-3.9,4.2,4.2,0,0,1,.683-2.733,4.98,4.98,0,0,1,4.168-1.913,6.286,6.286,0,0,1,4.852,1.435A4.39,4.39,0,0,1,63.3,60.47a6.97,6.97,0,0,1,4.442-.752,5.47,5.47,0,0,1,3.69,3.007,6.865,6.865,0,0,1,.82,5.74,6.975,6.975,0,0,1-3.075,3.417l.547,4.1a.761.761,0,0,1-.2.683.877.877,0,0,1-.683.273c-.068,0-9.635-.888-14.965.957h0A1.642,1.642,0,0,1,53.188,78.032Zm0-1.708h0l.342.82-.342-.82ZM51.821,63.545a4.039,4.039,0,0,0-3.895,2.8,2.517,2.517,0,0,0,.068,2.118c.957,1.708,4.1,2.6,5.262,2.733a.709.709,0,0,1,.547.41.809.809,0,0,1,.068.683,12.834,12.834,0,0,0-.615,3.895c4.647-1.572,11.822-1.3,14.487-1.093l-.478-3.69a.762.762,0,0,1,.547-.888,5.209,5.209,0,0,0,2.733-2.733,5.175,5.175,0,0,0-.752-4.305,3.87,3.87,0,0,0-2.6-2.118A6.144,6.144,0,0,0,62.96,62.52a.84.84,0,0,1-.888.068.948.948,0,0,1-.478-.82,3.077,3.077,0,0,0-.82-1.982,4.818,4.818,0,0,0-3.553-.957,3.536,3.536,0,0,0-2.87,1.162,3.54,3.54,0,0,0-.2,2.6.86.86,0,0,1-1.093,1.093A12,12,0,0,0,51.821,63.545Z" transform="translate(-46.041 -57.17)"/>
          </g>
        </g>
      </g>
    </g>
  </g>
</svg>
