<svg xmlns="http://www.w3.org/2000/svg" xmlns:xlink="http://www.w3.org/1999/xlink" viewBox="-14401 -5789 41 41">
  <defs>
    <style>
      .cls-1 {
        opacity: 0.05;
      }

      .cls-2 {
        clip-path: url(#clip-path);
      }

      .cls-3 {
        fill: #15a438;
      }

      .cls-4 {
        fill: #100c08;
      }

      .cls-5 {
        fill: #13a438;
      }

      .cls-6 {
        fill: #1d1d1b;
      }

      .cls-7 {
        fill: #fff;
      }

      .cls-8 {
        fill: #afb0b6;
      }
    </style>
    <clipPath id="clip-path">
      <circle id="Ellipse_3176" data-name="Ellipse 3176" cx="20.5" cy="20.5" r="20.5"/>
    </clipPath>
  </defs>
  <g id="Group_25792" data-name="Group 25792" transform="translate(-14401 -5789)">
    <circle id="Ellipse_3175" data-name="Ellipse 3175" class="cls-1" cx="20.5" cy="20.5" r="20.5"/>
    <g id="Group_25791" data-name="Group 25791">
      <g id="Group_25790" data-name="Group 25790" class="cls-2">
        <g id="Group_25787" data-name="Group 25787" transform="translate(16.104 4.897)">
          <path id="Path_24425" data-name="Path 24425" class="cls-3" d="M41.582,22.832s5.6,10.66,7.107,37.378L32.972,61.3c-5.125-28.153-1.23-35.26-1.23-35.26a8.86,8.86,0,0,1-6.218-5.535A9.042,9.042,0,0,1,42.4,14.017,8.948,8.948,0,0,1,41.1,22.7a4.665,4.665,0,0,1-1.5,1.162" transform="translate(-23.997 -7.502)"/>
          <path id="Path_24426" data-name="Path 24426" class="cls-4" d="M32.473,61.856a.812.812,0,0,1-.82-.683c-4.168-22.96-2.392-32.117-1.5-34.85A9.876,9.876,0,1,1,42.723,13.544a9.736,9.736,0,0,1-.82,8.678c.478.957,5.672,11.753,7.175,37.652a.847.847,0,0,1-.82.888L32.473,61.856Zm.957-53.027a8.538,8.538,0,0,0-2.87.547A8.128,8.128,0,0,0,25.844,19.9a8.32,8.32,0,0,0,5.672,4.988.781.781,0,0,1,.547.478.733.733,0,0,1-.068.752c0,.068-3.622,7.243,1.162,33.893L47.3,58.986c-1.3-21.73-5.4-32.6-6.628-35.4a4.71,4.71,0,0,1-1.3.82.844.844,0,0,1-.615-1.572,3.569,3.569,0,0,0,1.162-.888,8.307,8.307,0,0,0,1.162-7.858A8.2,8.2,0,0,0,33.429,8.829Z" transform="translate(-23.566 -7.166)"/>
        </g>
        <g id="Group_25788" data-name="Group 25788" transform="translate(23.291 22.813)">
          <path id="Path_24427" data-name="Path 24427" class="cls-3" d="M35.847,34.568,35.3,34.5" transform="translate(-34.47 -33.738)"/>
          <path id="Path_24428" data-name="Path 24428" class="cls-4" d="M35.462,35.1h-.137l-.547-.068a.831.831,0,1,1,.273-1.64l.547.068a.8.8,0,0,1,.683.957A.879.879,0,0,1,35.462,35.1Z" transform="translate(-34.085 -33.385)"/>
        </g>
        <g id="Group_25789" data-name="Group 25789" transform="translate(3.159 11.625)">
          <path id="Path_24429" data-name="Path 24429" class="cls-3" d="M36.352,36.9l-8.4,9.977-6.7-3.007s-.342-4.373-5.262-3.007c0,0-2.323,1.025-2.733,1.913s.41,6.355,4.168,6.628A8.869,8.869,0,0,1,23.1,51.66s9.977,5.535,14.008,1.025c3.963-4.51,0-7.722,0-7.722" transform="translate(-7.326 -23.31)"/>
          <path id="Path_24430" data-name="Path 24430" class="cls-4" d="M29.8,55.289a5.609,5.609,0,0,1-2.665-.752c-.547-.273-6.7-3.28-10.113-3.553a4.739,4.739,0,0,1-3.963-2.6c-1.093-1.845-1.435-4.305-.957-5.193.547-1.093,2.528-2.05,3.143-2.323.068,0,.068,0,.137-.068a5.035,5.035,0,0,1,4.51.41,4.827,4.827,0,0,1,1.777,2.8l4.852,1.913,2.392-6.082a.844.844,0,1,1,1.572.615l-2.733,6.9a.825.825,0,0,1-.478.478,1.158,1.158,0,0,1-.683,0l-6.082-2.392a1.058,1.058,0,0,1-.547-.752,3.058,3.058,0,0,0-1.162-2.05,3.62,3.62,0,0,0-3.007-.205,6.209,6.209,0,0,0-2.255,1.5,6.551,6.551,0,0,0,1.093,3.963,3.112,3.112,0,0,0,2.392,1.435c3.9.273,10.523,3.553,10.8,3.69l.068.068a3.506,3.506,0,0,0,2.528.41,4.663,4.663,0,0,0,2.8-2.8c2.528-5.125,2.938-6.56,2.938-6.628a.9.9,0,0,1,1.025-.615.837.837,0,0,1,.615,1.025c0,.068-.41,1.5-3.075,6.9q-1.538,3.075-3.9,3.69A1.738,1.738,0,0,1,29.8,55.289Z" transform="translate(-6.924 -24.069)"/>
          <path id="Path_24431" data-name="Path 24431" class="cls-5" d="M11.615,18.391c.82-.273,2.6,2.528,4.032,6.287s1.913,7.038,1.093,7.38c-.82.273-2.6-2.528-4.032-6.287-1.435-3.827-1.913-7.107-1.093-7.38" transform="translate(-6.71 -17.443)"/>
          <path id="Path_24432" data-name="Path 24432" class="cls-6" d="M16.262,32.511c-.82,0-2.528-.82-4.783-6.833a26.89,26.89,0,0,1-1.435-5.125c-.205-1.23-.273-2.87.82-3.28h0c.547-.2,2.46-.273,5.125,6.765s1.162,8.268.615,8.473C16.535,32.442,16.4,32.511,16.262,32.511ZM11.615,19.254a20.3,20.3,0,0,0,1.435,5.808,19.752,19.752,0,0,0,2.733,5.33,20.3,20.3,0,0,0-1.435-5.808A17.911,17.911,0,0,0,11.615,19.254Z" transform="translate(-6.301 -17.075)"/>
          <path id="Path_24433" data-name="Path 24433" class="cls-7" d="M6.5,19.764,10.122,18.4s1.5-.41,4.032,6.287c2.665,7.038,1.093,7.312,1.093,7.38l-3.622,1.367s1.435-1.025-1.093-7.38C8.482,20.994,7.252,19.7,6.5,19.764" transform="translate(-5.217 -17.449)"/>
          <path id="Path_24434" data-name="Path 24434" class="cls-4" d="M11.239,33.745a.739.739,0,0,1-.752-.478.828.828,0,0,1,.137-1.025c.068-.137.683-1.5-1.3-6.423-2.118-5.33-3.143-5.672-3.212-5.74a.812.812,0,0,1-.82-.683.838.838,0,0,1,.547-.957l3.622-1.367c1.093-.342,2.8.615,5.125,6.765,1.845,4.92,2.118,7.653.752,8.4-.068,0-.068.068-.137.068l-3.622,1.367A.743.743,0,0,1,11.239,33.745Zm-.478-1.5Zm0,0Zm-2.8-12.71a24.268,24.268,0,0,1,2.938,5.74,17.829,17.829,0,0,1,1.572,6.287l1.845-.683c.068-.273.342-1.708-1.435-6.287-1.708-4.51-2.87-5.467-3.143-5.672Zm1.777-.752Z" transform="translate(-4.831 -17.012)"/>
          <path id="Path_24435" data-name="Path 24435" class="cls-7" d="M6.315,20.391c.82-.273,2.6,2.528,4.032,6.287s1.913,7.038,1.093,7.38c-.82.273-2.6-2.528-4.032-6.287-1.435-3.827-1.913-7.107-1.093-7.38" transform="translate(-5.032 -18.076)"/>
          <path id="Path_24436" data-name="Path 24436" class="cls-4" d="M10.962,34.411c-.82,0-2.528-.82-4.783-6.833a26.89,26.89,0,0,1-1.435-5.125c-.2-1.23-.273-2.87.82-3.28h0c.547-.2,2.46-.273,5.125,6.765s1.162,8.268.615,8.473ZM6.384,21.222a20.3,20.3,0,0,0,1.435,5.808,19.752,19.752,0,0,0,2.733,5.33,20.3,20.3,0,0,0-1.435-5.808A18.665,18.665,0,0,0,6.384,21.222Zm-.478-1.23Z" transform="translate(-4.622 -17.677)"/>
          <path id="Path_24437" data-name="Path 24437" class="cls-8" d="M19.168,41.858,17.46,38.1,15,39.125l1.23,2.733c.068,0,1.162,2.255,2.938,0" transform="translate(-7.909 -23.69)"/>
          <path id="Path_24438" data-name="Path 24438" class="cls-4" d="M17.09,43.2h-.2a2.657,2.657,0,0,1-1.913-1.435L13.4,38.208,17.432,36.5l2.255,5.057-.342.41A2.932,2.932,0,0,1,17.09,43.2Zm-1.435-4.168.888,1.982c.068.137.342.478.547.478a.817.817,0,0,0,.547-.273l-1.093-2.528Z" transform="translate(-7.402 -23.183)"/>
        </g>
      </g>
    </g>
  </g>
</svg>
